{"title":"Fifty Dead Men Walking 2008 DVDRip Xvid BigPerm LKRG","uid":6465429,"size":1425147693,"categoryP":"video","categoryS":"movies","magnet":"?xt=urn:btih:7dc69baaddce9585d3b97802960a0bae0119ec5d&amp;dn=Fifty+Dead+Men+Walking+2008+DVDRip+Xvid+BigPerm+LKRG&amp;tr=udp%3A%2F%2Ftracker.openbittorrent.com%3A80&amp;tr=udp%3A%2F%2Fopen.demonii.com%3A1337&amp;tr=udp%3A%2F%2Ftracker.coppersurfer.tk%3A6969&amp;tr=udp%3A%2F%2Fexodus.desync.com%3A6969","seeders":0,"leechers":1,"uploader":".BONE.","files":97,"time":1307950591,"description":"PLOT\n\nBased on Martin McGartland's shocking real life story. Martin is a young lad from west\nBelfast in the late 1980s who is recruited by the British Police to spy on the IRA..\n &lt;a href=&quot;\nhttp://www.imdb.com/title/tt1097643/&quot; rel=&quot;nofollow&quot; target=&quot;_NEW&quot;&gt;\nhttp://www.imdb.com/title/tt1097643/&lt;/a&gt;\n\nEncoded By .......: BigPerm1828\nRuntime ..........: 1h 57mn\nFile Size ........: 1.34 GB\nResolution .......: 704x396\nIMDb URL .........: http://www.imdb.com/title/tt1097643/\nLanguage .........: English\nVideo\nID : 0\nFormat : MPEG-4 Visual\nFormat profile : Advanced Simple@L5\nFormat settings, BVOP : Yes\nFormat settings, QPel : No\nFormat settings, GMC : No warppoints\nFormat settings, Matrix : Default (H.263)\nCodec ID : XVID\nCodec ID/Hint : XviD\nDuration : 1h 57mn\nBit rate : 46.1 Kbps\nWidth : 704 pixels\nHeight : 396 pixels\nDisplay aspect ratio : 16:9\nFrame rate : 29.970 fps\nColor space : YUV\nChroma subsampling : 4:2:0\nBit depth : 8 bits\nScan type : Progressive\nCompression mode : Lossy\nBits/(Pixel*Frame) : 0.006\nStream size : 38.8 MiB (3%)\nWriting library : XviD 1.2.1 (UTC 2008-12-04)\n\nAudio\nID : 1\nFormat : AC-3\nFormat/Info : Audio Coding 3\nCodec ID : 2000\nDuration : 1h 57mn\nBit rate mode : Constant\nBit rate : 448 Kbps\nChannel(s) : 2 channels\nSampling rate : 48.0 KHz\nBit depth : 16 bits\nCompression mode : Lossy\nStream size : 377 MiB (27%)\nAlignment : Aligned on interleaves\n &lt;a href=&quot;\nhttp://leetleech.org/images/39395629066597766529.png&quot; rel=&quot;nofollow&quot; target=&quot;_NEW&quot;&gt;\nhttp://leetleech.org/images/39395629066597766529.png&lt;/a&gt;\n &lt;a href=&quot;\nhttp://leetleech.org/images/08510167594245847804.png&quot; rel=&quot;nofollow&quot; target=&quot;_NEW&quot;&gt;\nhttp://leetleech.org/images/08510167594245847804.png&lt;/a&gt;\n &lt;a href=&quot;\nhttp://leetleech.org/images/08510167594245847804.png&quot; rel=&quot;nofollow&quot; target=&quot;_NEW&quot;&gt;\nhttp://leetleech.org/images/08510167594245847804.png&lt;/a&gt;\n &lt;a href=&quot;\nhttp://leetleech.org/images/99777477358940119124.png&quot; rel=&quot;nofollow&quot; target=&quot;_NEW&quot;&gt;\nhttp://leetleech.org/images/99777477358940119124.png&lt;/a&gt;\n &lt;a href=&quot;\nhttp://leetleech.org/images/17580679795750951562.png&quot; rel=&quot;nofollow&quot; target=&quot;_NEW&quot;&gt;\nhttp://leetleech.org/images/17580679795750951562.png&lt;/a&gt;","torrent":{"xt":"urn:btih:7dc69baaddce9585d3b97802960a0bae0119ec5d","amp;dn":"Fifty+Dead+Men+Walking+2008+DVDRip+Xvid+BigPerm+LKRG","amp;tr":["udp%3A%2F%2Ftracker.openbittorrent.com%3A80","udp%3A%2F%2Fopen.demonii.com%3A1337","udp%3A%2F%2Ftracker.coppersurfer.tk%3A6969","udp%3A%2F%2Fexodus.desync.com%3A6969"],"infoHash":"7dc69baaddce9585d3b97802960a0bae0119ec5d","infoHashBuffer":{"type":"Buffer","data":[125,198,155,170,221,206,149,133,211,185,120,2,150,10,11,174,1,25,236,93]},"announce":[],"urlList":[]}}